<svg width="150" height="150" viewBox="0 0 150 150" fill="none" xmlns="http://www.w3.org/2000/svg">
<path d="M112 75C112 95.4345 95.4345 112 75 112C54.5655 112 38 95.4345 38 75C38 54.5655 54.5655 38 75 38C95.4345 38 112 54.5655 112 75Z" fill="#63A3EF" stroke="white" stroke-width="8"/>
<g opacity="0.18" filter="url(#filter0_f_28_263)">
<path d="M116 75C116 97.6437 97.6437 116 75 116C52.3563 116 34 97.6437 34 75C34 52.3563 52.3563 34 75 34C97.6437 34 116 52.3563 116 75Z" fill="#63A3EF"/>
</g>
<path d="M64.3333 65.3333H68.3333L71 62.6666H79L81.6666 65.3333H85.6666C86.3739 65.3333 87.0521 65.6142 87.5522 66.1143C88.0523 66.6144 88.3333 67.2927 88.3333 68V84C88.3333 84.7072 88.0523 85.3855 87.5522 85.8856C87.0521 86.3857 86.3739 86.6666 85.6666 86.6666H64.3333C63.626 86.6666 62.9478 86.3857 62.4477 85.8856C61.9476 85.3855 61.6666 84.7072 61.6666 84V68C61.6666 67.2927 61.9476 66.6144 62.4477 66.1143C62.9478 65.6142 63.626 65.3333 64.3333 65.3333ZM75 69.3333C73.2318 69.3333 71.5362 70.0357 70.2859 71.2859C69.0357 72.5362 68.3333 74.2318 68.3333 76C68.3333 77.7681 69.0357 79.4638 70.2859 80.714C71.5362 81.9642 73.2318 82.6666 75 82.6666C76.7681 82.6666 78.4638 81.9642 79.714 80.714C80.9642 79.4638 81.6666 77.7681 81.6666 76C81.6666 74.2318 80.9642 72.5362 79.714 71.2859C78.4638 70.0357 76.7681 69.3333 75 69.3333ZM75 72C76.0608 72 77.0782 72.4214 77.8284 73.1715C78.5785 73.9217 79 74.9391 79 76C79 77.0608 78.5785 78.0782 77.8284 78.8284C77.0782 79.5785 76.0608 80 75 80C73.9391 80 72.9217 79.5785 72.1715 78.8284C71.4214 78.0782 71 77.0608 71 76C71 74.9391 71.4214 73.9217 72.1715 73.1715C72.9217 72.4214 73.9391 72 75 72Z" fill="white"/>
<defs>
<filter id="filter0_f_28_263" x="0" y="0" width="150" height="150" filterUnits="userSpaceOnUse" color-interpolation-filters="sRGB">
<feFlood flood-opacity="0" result="BackgroundImageFix"/>
<feBlend mode="normal" in="SourceGraphic" in2="BackgroundImageFix" result="shape"/>
<feGaussianBlur stdDeviation="17" result="effect1_foregroundBlur_28_263"/>
</filter>
</defs>
</svg>
