<svg width="32" height="54" viewBox="0 0 32 54" fill="none" xmlns="http://www.w3.org/2000/svg">
<g clip-path="url(#clip0_27_140)">
<path d="M18.92 40.92L8 46L13.08 35.08L24 30M16 24.6667C14.249 24.6667 12.5152 25.0115 10.8976 25.6816C9.27988 26.3517 7.81002 27.3338 6.57191 28.5719C4.07143 31.0724 2.66667 34.4638 2.66667 38C2.66667 41.5362 4.07143 44.9276 6.57191 47.4281C7.81002 48.6662 9.27988 49.6483 10.8976 50.3184C12.5152 50.9885 14.249 51.3333 16 51.3333C19.5362 51.3333 22.9276 49.9286 25.4281 47.4281C27.9286 44.9276 29.3333 41.5362 29.3333 38C29.3333 36.249 28.9885 34.5152 28.3184 32.8976C27.6483 31.2799 26.6662 29.81 25.4281 28.5719C24.19 27.3338 22.7201 26.3517 21.1024 25.6816C19.4848 25.0115 17.751 24.6667 16 24.6667M16 36.5333C15.611 36.5333 15.238 36.6879 14.9629 36.9629C14.6879 37.238 14.5333 37.611 14.5333 38C14.5333 38.389 14.6879 38.762 14.9629 39.0371C15.238 39.3121 15.611 39.4667 16 39.4667C16.389 39.4667 16.762 39.3121 17.0371 39.0371C17.3121 38.762 17.4667 38.389 17.4667 38C17.4667 37.611 17.3121 37.238 17.0371 36.9629C16.762 36.6879 16.389 36.5333 16 36.5333Z" fill="#D5D9DD"/>
</g>
<defs>
<clipPath id="clip0_27_140">
<rect width="32" height="32" fill="white" transform="translate(0 22)"/>
</clipPath>
</defs>
</svg>
