<svg width="32" height="30" viewBox="0 0 32 30" fill="none" xmlns="http://www.w3.org/2000/svg">
<path d="M3.82207 0.185181H21.658C22.6716 0.185181 23.6438 0.582521 24.3605 1.28979C25.0773 1.99706 25.48 2.95633 25.48 3.95656V16.5278C25.48 17.528 25.0773 18.4873 24.3605 19.1946C23.6438 19.9018 22.6716 20.2992 21.658 20.2992H6.8924L2.17862 24.9631C2.05958 25.0796 1.9184 25.1718 1.76318 25.2344C1.60796 25.2969 1.44175 25.3286 1.27408 25.3277C1.10696 25.3319 0.941162 25.2975 0.789965 25.2271C0.55731 25.1328 0.35815 24.9727 0.217587 24.7668C0.0770226 24.561 0.00134277 24.3188 8.7738e-05 24.0706V3.95656C8.7738e-05 2.95633 0.40276 1.99706 1.11952 1.28979C1.83628 0.582521 2.80842 0.185181 3.82207 0.185181Z" fill="#63A3EF"/>
<path d="M28.6797 7.88885H13.1858C12.3053 7.88885 11.4608 8.23536 10.8382 8.85213C10.2155 9.46891 9.86572 10.3054 9.86572 11.1777V22.1405C9.86572 23.0128 10.2155 23.8493 10.8382 24.4661C11.4608 25.0828 12.3053 25.4294 13.1858 25.4294H26.0125L30.1073 29.4966C30.2107 29.5982 30.3334 29.6785 30.4682 29.7331C30.603 29.7877 30.7474 29.8153 30.8931 29.8145C31.0382 29.8182 31.1823 29.7881 31.3136 29.7268C31.5157 29.6445 31.6887 29.5049 31.8108 29.3254C31.9329 29.1459 31.9987 28.9346 31.9998 28.7182V11.1777C31.9998 10.3054 31.65 9.46891 31.0273 8.85213C30.4047 8.23536 29.5602 7.88885 28.6797 7.88885Z" fill="#0066DE"/>
</svg>
