<svg width="17" height="16" viewBox="0 0 17 16" fill="none" xmlns="http://www.w3.org/2000/svg">
<path d="M8.64412 13.3333C10.1066 13.3333 11.5091 12.7714 12.5432 11.7712C13.5773 10.771 14.1582 9.41447 14.1582 7.99998C14.1582 6.58549 13.5773 5.22894 12.5432 4.22874C11.5091 3.22855 10.1066 2.66665 8.64412 2.66665C7.18168 2.66665 5.77914 3.22855 4.74505 4.22874C3.71095 5.22894 3.13 6.58549 3.13 7.99998C3.13 9.41447 3.71095 10.771 4.74505 11.7712C5.77914 12.7714 7.18168 13.3333 8.64412 13.3333ZM8.64412 1.33331C9.54928 1.33331 10.4456 1.50575 11.2818 1.84078C12.1181 2.17581 12.8779 2.66688 13.518 3.28593C14.158 3.90499 14.6657 4.63992 15.0121 5.44876C15.3585 6.25759 15.5368 7.1245 15.5368 7.99998C15.5368 9.76809 14.8106 11.4638 13.518 12.714C12.2253 13.9643 10.4722 14.6666 8.64412 14.6666C4.83248 14.6666 1.75146 11.6666 1.75146 7.99998C1.75146 6.23187 2.47765 4.53618 3.77028 3.28593C5.0629 2.03569 6.81607 1.33331 8.64412 1.33331ZM8.98875 4.66665V8.16665L12.0904 9.94664L11.5735 10.7666L7.95485 8.66665V4.66665H8.98875Z" fill="black"/>
</svg>
