<svg width="32" height="32" viewBox="0 0 32 32" fill="none" xmlns="http://www.w3.org/2000/svg">
<path d="M15.5449 32C17.2685 32 18.6788 30.6065 18.6788 28.9033H12.411C12.411 30.6065 13.8056 32 15.5449 32ZM24.9466 22.7098V14.968C24.9466 10.2145 22.3768 6.23521 17.8953 5.18232V4.12943C17.8953 2.84429 16.8454 1.80688 15.5449 1.80688C14.2443 1.80688 13.1944 2.84429 13.1944 4.12943V5.18232C8.69729 6.23521 6.14316 10.199 6.14316 14.968V22.7098L4.12179 24.7072C3.13461 25.6827 3.82407 27.3549 5.21866 27.3549H25.8554C27.25 27.3549 27.9551 25.6827 26.968 24.7072L24.9466 22.7098Z" fill="#0066DE"/>
</svg>
