<svg width="41" height="36" viewBox="0 0 41 36" fill="none" xmlns="http://www.w3.org/2000/svg">
<rect opacity="0.8" width="41" height="35.4595" rx="8" fill="white"/>
<path d="M28.55 8H12.45C11.535 8 10.6575 8.37174 10.0105 9.03345C9.36348 9.69515 9 10.5926 9 11.5284V23.2898C9 24.2256 9.36348 25.123 10.0105 25.7847C10.6575 26.4464 11.535 26.8182 12.45 26.8182H28.55C29.465 26.8182 30.3425 26.4464 30.9895 25.7847C31.6365 25.123 32 24.2256 32 23.2898V11.5284C32 10.5926 31.6365 9.69515 30.9895 9.03345C30.3425 8.37174 29.465 8 28.55 8ZM12.45 24.4659C12.145 24.4659 11.8525 24.342 11.6368 24.1214C11.4212 23.9009 11.3 23.6017 11.3 23.2898V20.4435L15.095 16.574C15.31 16.3585 15.599 16.2378 15.9 16.2378C16.201 16.2378 16.49 16.3585 16.705 16.574L24.4215 24.4659H12.45ZM29.7 23.2898C29.7 23.6017 29.5788 23.9009 29.3632 24.1214C29.1475 24.342 28.855 24.4659 28.55 24.4659H27.6645L23.283 19.9613L24.295 18.9263C24.51 18.7108 24.799 18.5901 25.1 18.5901C25.401 18.5901 25.69 18.7108 25.905 18.9263L29.7 22.7958V23.2898ZM29.7 19.4791L27.538 17.2797C26.8826 16.6357 26.0089 16.276 25.1 16.276C24.1911 16.276 23.3174 16.6357 22.662 17.2797L21.65 18.3147L18.338 14.9274C17.6826 14.2834 16.8089 13.9238 15.9 13.9238C14.9911 13.9238 14.1174 14.2834 13.462 14.9274L11.3 17.1268V11.5284C11.3 11.2165 11.4212 10.9173 11.6368 10.6968C11.8525 10.4762 12.145 10.3523 12.45 10.3523H28.55C28.855 10.3523 29.1475 10.4762 29.3632 10.6968C29.5788 10.9173 29.7 11.2165 29.7 11.5284V19.4791Z" fill="#2E3236"/>
</svg>
