<svg width="19" height="18" viewBox="0 0 19 18" fill="none" xmlns="http://www.w3.org/2000/svg">
<path d="M9.87501 16.0709C9.79349 16.0709 9.71275 16.0549 9.63745 16.0237C9.56214 15.9925 9.49374 15.9467 9.43618 15.889L3.51107 9.96389C1.69618 8.14899 1.69618 5.19575 3.51107 3.38085C5.25397 1.63671 8.0477 1.56658 9.87501 3.17478C11.7011 1.56844 14.4948 1.63609 16.2389 3.38085C18.0538 5.19575 18.0538 8.14961 16.2389 9.96389L10.3138 15.889C10.2563 15.9467 10.1879 15.9925 10.1126 16.0237C10.0373 16.0549 9.95652 16.0709 9.87501 16.0709ZM6.80321 3.25982C6.35487 3.25903 5.91078 3.34679 5.49644 3.51807C5.0821 3.68935 4.70566 3.94076 4.38873 4.25789C3.74931 4.8985 3.39019 5.76663 3.39019 6.67175C3.39019 7.57686 3.74931 8.445 4.38873 9.08561L9.87501 14.5719L15.3613 9.08561C16.0007 8.445 16.3598 7.57686 16.3598 6.67175C16.3598 5.76663 16.0007 4.8985 15.3613 4.25789C14.7207 3.61847 13.8525 3.25935 12.9474 3.25935C12.0423 3.25935 11.1742 3.61847 10.5336 4.25789L10.3138 4.47761C10.2562 4.5353 10.1878 4.58107 10.1125 4.6123C10.0372 4.64352 9.95652 4.6596 9.87501 4.6596C9.79349 4.6596 9.71277 4.64352 9.63747 4.6123C9.56217 4.58107 9.49377 4.5353 9.43618 4.47761L9.21645 4.25789C8.89977 3.94077 8.52356 3.68935 8.10942 3.51807C7.69528 3.34679 7.25137 3.25903 6.80321 3.25982Z" fill="#D5D9DD"/>
</svg>
