<svg width="32" height="32" viewBox="0 0 32 32" fill="none" xmlns="http://www.w3.org/2000/svg">
<path d="M5.33329 5.33329H9.33329L12 2.66663H20L22.6666 5.33329H26.6666C27.3739 5.33329 28.0521 5.61424 28.5522 6.11434C29.0523 6.61444 29.3333 7.29272 29.3333 7.99996V24C29.3333 24.7072 29.0523 25.3855 28.5522 25.8856C28.0521 26.3857 27.3739 26.6666 26.6666 26.6666H5.33329C4.62605 26.6666 3.94777 26.3857 3.44767 25.8856C2.94758 25.3855 2.66663 24.7072 2.66663 24V7.99996C2.66663 7.29272 2.94758 6.61444 3.44767 6.11434C3.94777 5.61424 4.62605 5.33329 5.33329 5.33329M16 9.33329C14.2318 9.33329 12.5362 10.0357 11.2859 11.2859C10.0357 12.5362 9.33329 14.2318 9.33329 16C9.33329 17.7681 10.0357 19.4638 11.2859 20.714C12.5362 21.9642 14.2318 22.6666 16 22.6666C17.7681 22.6666 19.4638 21.9642 20.714 20.714C21.9642 19.4638 22.6666 17.7681 22.6666 16C22.6666 14.2318 21.9642 12.5362 20.714 11.2859C19.4638 10.0357 17.7681 9.33329 16 9.33329M16 12C17.0608 12 18.0782 12.4214 18.8284 13.1715C19.5785 13.9217 20 14.9391 20 16C20 17.0608 19.5785 18.0782 18.8284 18.8284C18.0782 19.5785 17.0608 20 16 20C14.9391 20 13.9217 19.5785 13.1715 18.8284C12.4214 18.0782 12 17.0608 12 16C12 14.9391 12.4214 13.9217 13.1715 13.1715C13.9217 12.4214 14.9391 12 16 12V12Z" fill="white"/>
</svg>
